<svg width="34" height="34" viewBox="0 0 34 34" fill="none" xmlns="http://www.w3.org/2000/svg">
<path fill-rule="evenodd" clip-rule="evenodd" d="M26.0709 7.98006C24.8928 6.79415 23.491 5.85381 21.9468 5.21352C20.4026 4.57324 18.7467 4.24573 17.0751 4.24998C10.0654 4.24998 4.35908 9.9549 4.35625 16.9674C4.35625 19.2086 4.94133 21.3959 6.05342 23.3254L4.25 29.9143L10.9919 28.1449C12.8568 29.1601 14.9461 29.6924 17.0694 29.6933H17.0751C24.0833 29.6933 29.7897 23.9884 29.7925 16.9759C29.7973 15.3049 29.4709 13.6496 28.8321 12.1055C28.1933 10.5614 27.2549 9.15926 26.0709 7.98006ZM17.0751 27.5471H17.0708C15.1775 27.5473 13.319 27.0379 11.6903 26.0723L11.305 25.8428L7.30433 26.8926L8.37108 22.9925L8.12033 22.593C7.06178 20.9077 6.50141 18.9575 6.50392 16.9674C6.50675 11.1392 11.2483 6.39765 17.0793 6.39765C18.468 6.39456 19.8435 6.66693 21.1263 7.19899C22.409 7.73104 23.5734 8.51222 24.5522 9.49731C25.5363 10.4777 26.3163 11.6434 26.8471 12.9271C27.3779 14.2107 27.649 15.5868 27.6448 16.9759C27.642 22.8041 22.9004 27.5471 17.0751 27.5471ZM22.8735 19.6293C22.5547 19.4692 20.9936 18.7014 20.7017 18.5951C20.4113 18.4889 20.2002 18.4365 19.9878 18.7538C19.7752 19.0711 19.1661 19.7866 18.9805 19.9991C18.7949 20.2116 18.6093 20.2371 18.292 20.0784C17.9747 19.9197 16.9504 19.584 15.7363 18.5016C14.7914 17.6587 14.1539 16.6189 13.9683 16.3001C13.7827 15.9814 13.9485 15.81 14.1086 15.6513C14.2517 15.5096 14.4259 15.2801 14.5846 15.0946C14.7432 14.909 14.7957 14.7772 14.9019 14.5647C15.0082 14.3522 14.9557 14.1666 14.875 14.008C14.7957 13.8479 14.1596 12.2839 13.8947 11.6478C13.6382 11.0316 13.3762 11.1137 13.1807 11.1052C12.9782 11.0969 12.7756 11.0932 12.5729 11.0939C12.4118 11.098 12.2532 11.1354 12.1072 11.2036C11.9612 11.2719 11.8308 11.3696 11.7243 11.4906C11.4325 11.8093 10.6122 12.5771 10.6122 14.1411C10.6122 15.7051 11.7512 17.2167 11.9099 17.4292C12.0686 17.6417 14.1511 20.8505 17.3386 22.2275C18.0979 22.5547 18.6901 22.7502 19.1505 22.8976C19.9112 23.1398 20.604 23.1044 21.1522 23.0236C21.7628 22.933 23.0322 22.2558 23.2971 21.5135C23.562 20.7711 23.562 20.1351 23.4827 20.0019C23.4033 19.8687 23.1894 19.788 22.8735 19.6293Z" fill="#151414"/>
</svg>
